<svg width="28" height="28" viewBox="0 0 24 24" stroke="currentColor" xmlns="http://www.w3.org/2000/svg">
<path fill="none" d="M20 15C20 14.4477 19.5523 14 19 14H15.6667C15.1144 14 14.6667 14.4477 14.6667 15V20H19C19.5523 20 20 19.5523 20 19V15Z" stroke-width="1.5"/>
<path fill="none" d="M14.6667 11C14.6667 10.4477 14.2189 10 13.6667 10H10.3333C9.78105 10 9.33333 10.4477 9.33333 11V20H14.6667V11Z"  stroke-width="1.5"/>
<path fill="none" d="M9.33334 5C9.33334 4.44772 8.88562 4 8.33334 4H5C4.44772 4 4 4.44772 4 5V19C4 19.5523 4.44772 20 5 20H9.33334V5Z"  stroke-width="1.5"/>
</svg>
